<svg width="80" height="80" viewBox="0 0 80 80" fill="none" xmlns="http://www.w3.org/2000/svg">
<g clip-path="url(#clip0_224_410)">
<path d="M14.8933 32.9463C18.9287 32.9463 22.2 29.675 22.2 25.6397C22.2 21.6043 18.9287 18.333 14.8933 18.333C10.858 18.333 7.58667 21.6043 7.58667 25.6397C7.58667 29.675 10.858 32.9463 14.8933 32.9463Z" fill="#53A6A7"/>
<path d="M29.6799 56.107C30.4133 53.4803 31.1199 49.4803 30.1066 45.8803C29.5199 43.7736 28.3199 41.4936 27.1466 39.5736C36.7999 35.827 38.4133 29.427 38.4399 25.747C38.5066 18.0936 31.9333 9.82698 23.7866 7.32031L21.8266 13.6936C27.0666 15.307 31.8133 21.027 31.7733 25.6936C31.7333 30.467 26.7066 32.907 22.4933 34.1336C13.5199 36.7203 7.93326 40.3336 5.42659 45.1603C3.59993 48.667 3.47992 52.787 5.06659 57.4003L11.3733 55.227C10.3733 52.3336 10.3733 50.107 11.3599 48.2136C12.6533 45.7203 15.7866 43.5603 20.6533 41.747C21.8399 43.5603 23.1999 45.8936 23.6933 47.6803C24.4933 50.547 23.2266 54.7336 22.6266 56.2536C22.2533 56.2936 21.8799 56.3336 21.5199 56.4003C7.35992 58.707 3.66659 72.8536 3.69326 80.0136L10.3599 80.0003C10.3599 79.387 10.5466 64.947 22.5866 62.9736C40.9199 59.9736 75.7999 78.8537 76.1466 79.0403L79.3466 73.187C78.0133 72.467 50.3599 57.4803 29.6799 56.107Z" fill="#53A6A7"/>
</g>
<defs>
<clipPath id="clip0_224_410">
<rect width="80" height="80" fill="white"/>
</clipPath>
</defs>
</svg>
