<svg width="80" height="80" viewBox="0 0 80 80" fill="none" xmlns="http://www.w3.org/2000/svg">
<g clip-path="url(#clip0_224_409)">
<path d="M58.44 19.7335C62.4754 19.7335 65.7467 16.4621 65.7467 12.4268C65.7467 8.39142 62.4754 5.12012 58.44 5.12012C54.4046 5.12012 51.1333 8.39142 51.1333 12.4268C51.1333 16.4621 54.4046 19.7335 58.44 19.7335Z" fill="#8F273F"/>
<path d="M55.4533 22.3335C55.12 22.2802 54.64 22.2135 54.0133 22.2268C42.7466 21.0268 33.88 8.6935 33.8 8.5735L28.3467 12.4135C28.6933 12.8935 34.8 21.4268 44.08 26.0535C43.76 26.2668 43.4533 26.4935 43.12 26.7335C40.9466 28.3468 38.9067 30.7468 37.2667 32.9602C28.68 15.6268 10.96 1.18684 10.12 0.506836L5.93332 5.6935C6.14665 5.86684 27.2267 23.0402 33.48 41.0935C39.64 58.8535 39.5066 79.7602 39.5066 79.9602L46.1733 80.0268C46.1866 79.1468 46.32 58.8802 40.28 40.3868C41.7733 37.9868 44.5733 33.9602 47.1067 32.0802C50.72 29.3868 53.04 28.9602 53.92 28.9068C54.24 28.9335 54.5466 28.9602 54.8666 28.9735C63.8666 29.3202 69.4933 41.9868 69.5466 42.1202L75.6666 39.4802C75.3733 38.8002 68.44 23.1068 55.4533 22.3335Z" fill="#8F273F"/>
</g>
<defs>
<clipPath id="clip0_224_409">
<rect width="80" height="80" fill="white"/>
</clipPath>
</defs>
</svg>
