<svg width="60" height="60" viewBox="0 0 60 60" fill="none" xmlns="http://www.w3.org/2000/svg">
<path d="M32.7941 53.6057C38.8459 52.8357 44.3775 49.7901 48.2645 45.0881C52.1515 40.386 54.1022 34.3803 53.7202 28.2917C53.3382 22.203 50.6521 16.4882 46.2078 12.3089C41.7636 8.12956 35.8947 5.79931 29.7941 5.79175C23.6859 5.7872 17.8059 8.11176 13.3521 12.2918C8.89826 16.4718 6.20579 22.1927 5.8233 28.2889C5.44081 34.385 7.39708 40.3976 11.2935 45.1015C15.1899 49.8055 20.7333 52.8468 26.7941 53.6057V35.7917H20.7941V29.7917H26.7941V24.8297C26.7941 20.8187 27.2141 19.3637 27.9941 17.8967C28.7623 16.4452 29.9498 15.2587 31.4021 14.4917C32.5481 13.8767 33.9731 13.5077 36.4631 13.3487C37.4501 13.2857 38.7281 13.3637 40.2971 13.5887V19.2887H38.7971C36.0461 19.2887 34.9091 19.4177 34.2311 19.7807C33.8266 19.989 33.4973 20.3183 33.2891 20.7227C32.9291 21.4007 32.7971 22.0727 32.7971 24.8267V29.7917H40.2971L38.7971 35.7917H32.7971L32.7941 53.6057ZM29.7941 59.7917C13.2251 59.7917 -0.205933 46.3607 -0.205933 29.7917C-0.205933 13.2227 13.2251 -0.208252 29.7941 -0.208252C46.3631 -0.208252 59.7941 13.2227 59.7941 29.7917C59.7941 46.3607 46.3631 59.7917 29.7941 59.7917Z" fill="white"/>
</svg>
