<svg width="80" height="80" viewBox="0 0 80 80" fill="none" xmlns="http://www.w3.org/2000/svg">
<g clip-path="url(#clip0_224_408)">
<path d="M71.3867 64.9737C75.4221 64.9737 78.6934 61.7024 78.6934 57.667C78.6934 53.6317 75.4221 50.3604 71.3867 50.3604C67.3514 50.3604 64.0801 53.6317 64.0801 57.667C64.0801 61.7024 67.3514 64.9737 71.3867 64.9737Z" fill="#EE8423"/>
<path d="M80 39.0801C79.7867 39.0801 58.6133 39.1201 36.9067 42.3601C36.6933 42.3867 36.4933 42.4401 36.2933 42.4667C0.199997 45.0267 -0.0800018 79.6534 -0.0800018 80.0134L6.58666 79.9867C6.58666 79.1601 6.77333 65.8801 16.5733 56.9734C12.1733 64.7601 10.6133 73.8801 10.56 79.9601L17.2267 80.0134C17.2267 79.9467 17.3333 72.6267 20.12 65.1067C23.5067 55.9334 29.2133 50.5601 37.0933 49.0934C37.84 49.0401 38.6 49.0001 39.3867 48.9867C39.5067 48.9867 39.6133 48.9867 39.7333 48.9867C58.1733 48.9867 59.1867 79.7601 59.1867 80.0801L65.8533 79.9201C65.84 79.5467 65.6 70.6001 62.4533 61.5601C60.24 55.2001 57.1467 50.3601 53.2933 47.1334C68.12 45.7734 79.8533 45.7467 80.0133 45.7467V39.0801H80Z" fill="#EE8423"/>
</g>
<defs>
<clipPath id="clip0_224_408">
<rect width="80" height="80" fill="white"/>
</clipPath>
</defs>
</svg>
