<svg width="80" height="80" viewBox="0 0 80 80" fill="none" xmlns="http://www.w3.org/2000/svg">
<g clip-path="url(#clip0_224_412)">
<path d="M56.6265 63.5733C60.6619 63.5733 63.9332 60.302 63.9332 56.2666C63.9332 52.2313 60.6619 48.96 56.6265 48.96C52.5911 48.96 49.3198 52.2313 49.3198 56.2666C49.3198 60.302 52.5911 63.5733 56.6265 63.5733Z" fill="#DA222A"/>
<path d="M37.84 38.3733C46.2267 36.8667 58.4533 31.8267 70.2933 26.9333C73.4667 25.6267 76.56 24.3467 79.48 23.1867L77.0133 17C74.08 18.1733 70.96 19.4533 67.76 20.7733C56.12 25.5733 42.92 31.0133 35.3867 32.0133L33.64 32.2533C23.88 33.6 15.4533 34.76 5.45333 20.5467L0 24.3867C8.85333 36.9733 17.4267 39.6933 25.4133 39.6933C27.1067 39.6933 28.7867 39.56 30.4267 39.3867C32.4667 43.08 36.76 46.8 40.64 49.1067C36.1867 55.48 36.3467 63.4667 36.56 73.2667C36.6 75.44 36.6533 77.7333 36.6533 80.1467H43.32C43.32 77.68 43.2667 75.3467 43.2267 73.1333C43.0133 62.8133 42.8667 56 47.4933 51.2533C52.3467 46.2667 63.36 42.64 73.6667 42.64V35.9733C63.16 35.9733 52.2133 39.2533 45.52 44.1867C42.7333 42.8667 39.7467 40.48 37.84 38.3733Z" fill="#DA222A"/>
</g>
<defs>
<clipPath id="clip0_224_412">
<rect width="80" height="80" fill="white"/>
</clipPath>
</defs>
</svg>
