<svg width="80" height="80" viewBox="0 0 80 80" fill="none" xmlns="http://www.w3.org/2000/svg">
<g clip-path="url(#clip0_224_411)">
<path d="M39.1067 72.0665C43.142 72.0665 46.4133 68.7952 46.4133 64.7598C46.4133 60.7244 43.142 57.4531 39.1067 57.4531C35.0713 57.4531 31.8 60.7244 31.8 64.7598C31.8 68.7952 35.0713 72.0665 39.1067 72.0665Z" fill="white"/>
<path d="M42.44 46.4933V40.0933C43.7067 39.6267 44.8667 38.8933 45.8667 37.8667C51.68 31.9867 52.0133 18.3333 51.84 3.66667C51.8267 2.32 51.8133 1.09333 51.8133 0H45.1467C45.1467 1.10667 45.16 2.37333 45.1733 3.74667C45.28 12.4933 45.4667 28.7867 41.12 33.1867C40.56 33.7467 40.0267 33.9867 39.3067 33.9867C38.56 33.9867 37.9867 33.7333 37.4 33.1333C32.8933 28.6 33 11.28 33.0667 2.96C33.0667 1.89333 33.08 0.906667 33.08 0H26.4133C26.4133 0.893333 26.4133 1.86667 26.4 2.92C26.3067 17.2933 26.7067 31.8267 32.68 37.84C33.6 38.7733 34.64 39.48 35.7733 39.9467V46.4533C29.76 47.4533 25.6533 51.3067 23.56 57.9467C21.64 64.0533 21.64 71.7333 21.6533 79.16V80H28.32V79.16C28.32 72.24 28.32 65.08 29.92 59.9467C31.48 54.96 34.2267 52.84 39.1067 52.84C46.8667 52.84 50.1867 60.96 50.1867 80H56.8533C56.84 70.56 56.84 49.3067 42.44 46.4933Z" fill="white"/>
</g>
<defs>
<clipPath id="clip0_224_411">
<rect width="80" height="80" fill="white"/>
</clipPath>
</defs>
</svg>
