<svg width="60" height="60" viewBox="0 0 60 60" fill="none" xmlns="http://www.w3.org/2000/svg">
<path d="M30 21C27.6131 21 25.3239 21.9482 23.636 23.636C21.9482 25.3239 21 27.6131 21 30C21 32.3869 21.9482 34.6761 23.636 36.364C25.3239 38.0518 27.6131 39 30 39C32.3869 39 34.6761 38.0518 36.364 36.364C38.0518 34.6761 39 32.3869 39 30C39 27.6131 38.0518 25.3239 36.364 23.636C34.6761 21.9482 32.3869 21 30 21ZM30 15C33.9782 15 37.7936 16.5804 40.6066 19.3934C43.4196 22.2064 45 26.0218 45 30C45 33.9782 43.4196 37.7936 40.6066 40.6066C37.7936 43.4196 33.9782 45 30 45C26.0218 45 22.2064 43.4196 19.3934 40.6066C16.5804 37.7936 15 33.9782 15 30C15 26.0218 16.5804 22.2064 19.3934 19.3934C22.2064 16.5804 26.0218 15 30 15ZM49.5 14.25C49.5 15.2446 49.1049 16.1984 48.4017 16.9016C47.6984 17.6049 46.7446 18 45.75 18C44.7554 18 43.8016 17.6049 43.0984 16.9016C42.3951 16.1984 42 15.2446 42 14.25C42 13.2554 42.3951 12.3016 43.0984 11.5983C43.8016 10.8951 44.7554 10.5 45.75 10.5C46.7446 10.5 47.6984 10.8951 48.4017 11.5983C49.1049 12.3016 49.5 13.2554 49.5 14.25ZM30 6C22.578 6 21.366 6.021 17.913 6.174C15.561 6.285 13.983 6.6 12.519 7.17C11.2938 7.61981 10.1862 8.34078 9.279 9.279C8.34002 10.1862 7.61806 11.2938 7.167 12.519C6.597 13.989 6.282 15.564 6.174 17.913C6.018 21.225 5.997 22.383 5.997 30C5.997 37.425 6.018 38.634 6.171 42.087C6.282 44.436 6.597 46.017 7.164 47.478C7.674 48.783 8.274 49.722 9.27 50.718C10.281 51.726 11.22 52.329 12.51 52.827C13.992 53.4 15.57 53.718 17.91 53.826C21.222 53.982 22.38 54 29.997 54C37.422 54 38.631 53.979 42.084 53.826C44.43 53.715 46.008 53.4 47.475 52.833C48.699 52.381 49.8062 51.6603 50.715 50.724C51.726 49.716 52.329 48.777 52.827 47.484C53.397 46.008 53.715 44.43 53.823 42.084C53.979 38.775 53.997 37.614 53.997 30C53.997 22.578 53.976 21.366 53.823 17.913C53.712 15.567 53.394 13.983 52.827 12.519C52.3748 11.2951 51.6541 10.1879 50.718 9.279C49.8112 8.33954 48.7035 7.6175 47.478 7.167C46.008 6.597 44.43 6.282 42.084 6.174C38.775 6.018 37.62 6 30 6ZM30 0C38.151 0 39.168 0.0299998 42.369 0.18C45.561 0.33 47.739 0.831 49.65 1.575C51.63 2.337 53.298 3.369 54.966 5.034C56.4915 6.53369 57.6719 8.34777 58.425 10.35C59.166 12.261 59.67 14.439 59.82 17.634C59.961 20.832 60 21.849 60 30C60 38.151 59.97 39.168 59.82 42.366C59.67 45.561 59.166 47.736 58.425 49.65C57.6739 51.6533 56.4933 53.4678 54.966 54.966C53.4659 56.491 51.6519 57.6713 49.65 58.425C47.739 59.166 45.561 59.67 42.369 59.82C39.168 59.961 38.151 60 30 60C21.849 60 20.832 59.97 17.631 59.82C14.439 59.67 12.264 59.166 10.35 58.425C8.34698 57.6734 6.53258 56.4928 5.034 54.966C3.50829 53.4665 2.32788 51.6524 1.575 49.65C0.831 47.739 0.330001 45.561 0.180001 42.366C0.0360005 39.168 0 38.151 0 30C0 21.849 0.0300005 20.832 0.180001 17.634C0.330001 14.436 0.831 12.264 1.575 10.35C2.32571 8.34654 3.50641 6.53196 5.034 5.034C6.53301 3.50769 8.34729 2.32719 10.35 1.575C12.261 0.831 14.436 0.33 17.631 0.18C20.832 0.0389998 21.849 0 30 0Z" fill="white"/>
</svg>
