<svg width="49" height="60" viewBox="0 0 49 60" fill="none" xmlns="http://www.w3.org/2000/svg">
<path d="M24.4068 60L7.14848 42.4263C3.73517 38.9506 1.41067 34.5222 0.468958 29.7012C-0.472758 24.8803 0.0105949 19.8832 1.85789 15.342C3.70519 10.8007 6.83347 6.91928 10.8471 4.18843C14.8608 1.45758 19.5796 0 24.4068 0C29.234 0 33.9528 1.45758 37.9664 4.18843C41.9801 6.91928 45.1084 10.8007 46.9557 15.342C48.803 19.8832 49.2863 24.8803 48.3446 29.7012C47.4029 34.5222 45.0784 38.9506 41.6651 42.4263L24.4068 60ZM37.8305 38.5216C40.4851 35.8182 42.2929 32.3739 43.0252 28.6244C43.7575 24.8748 43.3815 20.9883 41.9446 17.4563C40.5078 13.9243 38.0747 10.9055 34.953 8.78158C31.8313 6.65766 28.1612 5.52403 24.4068 5.52403C20.6524 5.52403 16.9823 6.65766 13.8606 8.78158C10.7389 10.9055 8.30576 13.9243 6.86892 17.4563C5.43208 20.9883 5.05604 24.8748 5.78835 28.6244C6.52066 32.3739 8.32843 35.8182 10.9831 38.5216L24.4068 52.1907L37.8305 38.5216ZM24.4068 30.3754C22.9683 30.3754 21.5888 29.7936 20.5716 28.7578C19.5545 27.7221 18.9831 26.3173 18.9831 24.8526C18.9831 23.3878 19.5545 21.9831 20.5716 20.9474C21.5888 19.9116 22.9683 19.3297 24.4068 19.3297C25.8452 19.3297 27.2248 19.9116 28.2419 20.9474C29.2591 21.9831 29.8305 23.3878 29.8305 24.8526C29.8305 26.3173 29.2591 27.7221 28.2419 28.7578C27.2248 29.7936 25.8452 30.3754 24.4068 30.3754Z" fill="#EE8423"/>
</svg>
