<svg width="60" height="60" viewBox="0 0 60 60" fill="none" xmlns="http://www.w3.org/2000/svg">
<path d="M30.0149 60.009C13.4459 60.009 0.0148926 46.578 0.0148926 30.009C0.0148926 13.44 13.4459 0.00899887 30.0149 0.00899887C46.5839 0.00899887 60.0149 13.44 60.0149 30.009C60.0149 46.578 46.5839 60.009 30.0149 60.009ZM30.0149 54.009C36.3801 54.009 42.4846 51.4804 46.9855 46.9796C51.4863 42.4787 54.0149 36.3742 54.0149 30.009C54.0149 23.6438 51.4863 17.5393 46.9855 13.0384C42.4846 8.53756 36.3801 6.009 30.0149 6.009C23.6497 6.009 17.5452 8.53756 13.0443 13.0384C8.54346 17.5393 6.01489 23.6438 6.01489 30.009C6.01489 36.3742 8.54346 42.4787 13.0443 46.9796C17.5452 51.4804 23.6497 54.009 30.0149 54.009ZM21.0149 33.009H18.0149V27.009H21.0149V24.009C21.0138 21.5716 21.8608 19.2098 23.4105 17.3285C24.9602 15.4472 27.1161 14.1636 29.5086 13.6979C31.9011 13.2322 34.3811 13.6133 36.5233 14.7759C38.6655 15.9385 40.3366 17.8102 41.2499 20.07L35.2889 21.561C34.7629 20.7427 33.9858 20.1169 33.0741 19.7777C32.1624 19.4385 31.1653 19.404 30.2323 19.6795C29.2994 19.955 28.4809 20.5256 27.8997 21.3057C27.3185 22.0857 27.006 23.0332 27.0089 24.006V27.006H36.0089V33.006H27.0089V39.006H42.0089V45.006H18.0089V39.006H21.0089V33.006L21.0149 33.009Z" fill="#DA222A"/>
</svg>
